999
"DXF R12 Output" (www.mydxf.blogspot.com)
 0 
SECTION
 2 
HEADER
 9 
$ACADVER
 1 
AC1009
 9 
$EXTMIN
 10 
 0 
 20 
 0 
 9 
$EXTMAX
 10 
 8.5 
 20 
 11 
 0 
ENDSEC
 0 
SECTION
 2 
ENTITIES
0
LINE
8
Layer 1
10
41.334600
20
38.716000
11
22.334600
21
13.962300
0
LINE
8
Layer 1
10
22.334600
20
13.962300
11
21.886500
21
13.160938
0
LINE
8
Layer 1
10
21.886500
20
13.160938
11
21.578431
21
12.246492
0
LINE
8
Layer 1
10
21.578431
20
12.246492
11
21.438400
21
11.067100
0
LINE
8
Layer 1
10
21.438400
20
11.067100
11
21.522414
21
10.376818
0
LINE
8
Layer 1
10
21.522414
20
10.376818
11
21.774456
21
9.629180
0
LINE
8
Layer 1
10
21.774456
20
9.629180
11
22.194527
21
8.870234
0
LINE
8
Layer 1
10
22.194527
20
8.870234
11
22.782625
21
8.146024
0
LINE
8
Layer 1
10
22.782625
20
8.146024
11
23.538752
21
7.502596
0
LINE
8
Layer 1
10
23.538752
20
7.502596
11
24.462906
21
6.985995
0
LINE
8
Layer 1
10
24.462906
20
6.985995
11
25.555089
21
6.642268
0
LINE
8
Layer 1
10
25.555089
20
6.642268
11
26.815300
21
6.517460
0
LINE
8
Layer 1
10
26.815300
20
6.517460
11
29.473525
21
6.965530
0
LINE
8
Layer 1
10
29.473525
20
6.965530
11
31.433800
21
7.413600
0
LINE
8
Layer 1
10
31.433800
20
7.413600
11
118.635000
21
24.371300
0
LINE
8
Layer 1
10
118.635000
20
24.371300
11
118.635000
21
18.504100
0
LINE
8
Layer 1
10
118.635000
20
18.504100
11
118.813000
21
18.504100
0
LINE
8
Layer 1
10
118.813000
20
18.504100
11
127.000000
21
28.093800
0
LINE
8
Layer 1
10
127.000000
20
28.093800
11
117.824000
21
35.491100
0
LINE
8
Layer 1
10
117.824000
20
35.491100
11
117.360000
21
35.350400
0
LINE
8
Layer 1
10
117.360000
20
35.350400
11
117.319000
21
30.532400
0
LINE
8
Layer 1
10
117.319000
20
30.532400
11
53.520400
21
23.020300
0
LINE
8
Layer 1
10
53.520400
20
23.020300
11
52.876838
21
22.914817
0
LINE
8
Layer 1
10
52.876838
20
22.914817
11
51.461000
21
22.816187
0
LINE
8
Layer 1
10
51.461000
20
22.816187
11
50.704814
21
22.871545
0
LINE
8
Layer 1
10
50.704814
20
22.871545
11
50.045163
21
23.051139
0
LINE
8
Layer 1
10
50.045163
20
23.051139
11
49.578580
21
23.395810
0
LINE
8
Layer 1
10
49.578580
20
23.395810
11
49.401600
21
23.946400
0
LINE
8
Layer 1
10
49.401600
20
23.946400
11
49.729929
21
25.091828
0
LINE
8
Layer 1
10
49.729929
20
25.091828
11
50.595522
21
27.004708
0
LINE
8
Layer 1
10
50.595522
20
27.004708
11
53.222150
21
31.998363
0
LINE
8
Layer 1
10
53.222150
20
31.998363
11
57.042700
21
38.716000
0
LINE
8
Layer 1
10
57.042700
20
38.716000
11
41.334600
21
38.716000
0
LINE
8
Layer 1
10
41.334600
20
38.716000
11
41.334600
21
38.716000
0
LINE
8
Layer 1
10
61.592400
20
64.491000
11
68.520200
21
73.693500
0
LINE
8
Layer 1
10
68.520200
20
73.693500
11
77.688400
21
73.693500
0
LINE
8
Layer 1
10
77.688400
20
73.693500
11
72.346000
21
64.491000
0
LINE
8
Layer 1
10
72.346000
20
64.491000
11
61.592400
21
64.491000
0
LINE
8
Layer 1
10
61.592400
20
64.491000
11
61.592400
21
64.491000
0
LINE
8
Layer 1
10
7.979090
20
61.956700
11
7.979090
21
41.554900
0
LINE
8
Layer 1
10
7.979090
20
41.554900
11
13.353600
21
41.554900
0
LINE
8
Layer 1
10
13.353600
20
41.554900
11
13.353600
21
61.992200
0
LINE
8
Layer 1
10
13.353600
20
61.992200
11
7.979090
21
61.956700
0
LINE
8
Layer 1
10
7.979090
20
61.956700
11
7.979090
21
61.956700
0
LINE
8
Layer 1
10
16.992700
20
62.002000
11
16.992700
21
41.562500
0
LINE
8
Layer 1
10
16.992700
20
41.562500
11
22.959000
21
41.562000
0
LINE
8
Layer 1
10
22.959000
20
41.562000
11
32.328000
21
52.478000
0
LINE
8
Layer 1
10
32.328000
20
52.478000
11
32.328000
21
41.562300
0
LINE
8
Layer 1
10
32.328000
20
41.562300
11
37.498800
21
41.562300
0
LINE
8
Layer 1
10
37.498800
20
41.562300
11
37.498800
21
62.002000
0
LINE
8
Layer 1
10
37.498800
20
62.002000
11
32.328000
21
62.002000
0
LINE
8
Layer 1
10
32.328000
20
62.002000
11
22.959000
21
51.461800
0
LINE
8
Layer 1
10
22.959000
20
51.461800
11
22.958900
21
62.002000
0
LINE
8
Layer 1
10
22.958900
20
62.002000
11
16.992700
21
62.002000
0
LINE
8
Layer 1
10
16.992700
20
62.002000
11
16.992700
21
62.002000
0
LINE
8
Layer 1
10
90.594800
20
62.577200
11
90.157300
21
62.530300
0
LINE
8
Layer 1
10
90.157300
20
62.530300
11
88.794624
21
62.291002
0
LINE
8
Layer 1
10
88.794624
20
62.291002
11
87.450816
21
61.870942
0
LINE
8
Layer 1
10
87.450816
20
61.870942
11
86.167281
21
61.285959
0
LINE
8
Layer 1
10
86.167281
20
61.285959
11
84.985420
21
60.551890
0
LINE
8
Layer 1
10
84.985420
20
60.551890
11
83.623141
21
59.382075
0
LINE
8
Layer 1
10
83.623141
20
59.382075
11
82.464210
21
58.048340
0
LINE
8
Layer 1
10
82.464210
20
58.048340
11
81.725755
21
56.878010
0
LINE
8
Layer 1
10
81.725755
20
56.878010
11
81.143181
21
55.632217
0
LINE
8
Layer 1
10
81.143181
20
55.632217
11
80.717382
21
54.313236
0
LINE
8
Layer 1
10
80.717382
20
54.313236
11
80.449250
21
52.923340
0
LINE
8
Layer 1
10
80.449250
20
52.923340
11
80.433610
21
50.392090
0
LINE
8
Layer 1
10
80.433610
20
50.392090
11
80.838446
21
48.431404
0
LINE
8
Layer 1
10
80.838446
20
48.431404
11
81.579440
21
46.596800
0
LINE
8
Layer 1
10
81.579440
20
46.596800
11
82.725429
21
44.800594
0
LINE
8
Layer 1
10
82.725429
20
44.800594
11
84.190411
21
43.266259
0
LINE
8
Layer 1
10
84.190411
20
43.266259
11
85.920153
21
42.040644
0
LINE
8
Layer 1
10
85.920153
20
42.040644
11
87.860420
21
41.170600
0
LINE
8
Layer 1
10
87.860420
20
41.170600
11
90.126050
21
40.652053
0
LINE
8
Layer 1
10
90.126050
20
40.652053
11
92.626050
21
40.652053
0
LINE
8
Layer 1
10
92.626050
20
40.652053
11
94.563081
21
41.059602
0
LINE
8
Layer 1
10
94.563081
20
41.059602
11
96.283340
21
41.743483
0
LINE
8
Layer 1
10
96.283340
20
41.743483
11
98.385152
21
43.115349
0
LINE
8
Layer 1
10
98.385152
20
43.115349
11
100.105548
21
44.897356
0
LINE
8
Layer 1
10
100.105548
20
44.897356
11
101.382869
21
47.009411
0
LINE
8
Layer 1
10
101.382869
20
47.009411
11
102.155460
21
49.371423
0
LINE
8
Layer 1
10
102.155460
20
49.371423
11
102.357880
21
51.595213
0
LINE
8
Layer 1
10
102.357880
20
51.595213
11
102.170680
21
53.751463
0
LINE
8
Layer 1
10
102.170680
20
53.751463
11
101.791283
21
55.158146
0
LINE
8
Layer 1
10
101.791283
20
55.158146
11
101.233310
21
56.488900
0
LINE
8
Layer 1
10
101.233310
20
56.488900
11
100.510267
21
57.728382
0
LINE
8
Layer 1
10
100.510267
20
57.728382
11
99.635659
21
58.861254
0
LINE
8
Layer 1
10
99.635659
20
58.861254
11
98.622990
21
59.872175
0
LINE
8
Layer 1
10
98.622990
20
59.872175
11
97.485765
21
60.745803
0
LINE
8
Layer 1
10
97.485765
20
60.745803
11
96.237490
21
61.466799
0
LINE
8
Layer 1
10
96.237490
20
61.466799
11
94.891670
21
62.019823
0
LINE
8
Layer 1
10
94.891670
20
62.019823
11
92.730740
21
62.519087
0
LINE
8
Layer 1
10
92.730740
20
62.519087
11
90.594800
21
62.577187
0
LINE
8
Layer 1
10
90.594800
20
62.577187
11
90.594800
21
62.577200
0
LINE
8
Layer 1
10
92.219800
20
56.674070
11
93.702634
21
56.208303
0
LINE
8
Layer 1
10
93.702634
20
56.208303
11
94.964879
21
55.353446
0
LINE
8
Layer 1
10
94.964879
20
55.353446
11
95.933227
21
54.176283
0
LINE
8
Layer 1
10
95.933227
20
54.176283
11
96.534370
21
52.743600
0
LINE
8
Layer 1
10
96.534370
20
52.743600
11
96.693400
21
51.423350
0
LINE
8
Layer 1
10
96.693400
20
51.423350
11
96.498021
21
49.950245
0
LINE
8
Layer 1
10
96.498021
20
49.950245
11
95.899090
21
48.610850
0
LINE
8
Layer 1
10
95.899090
20
48.610850
11
95.185575
21
47.702979
0
LINE
8
Layer 1
10
95.185575
20
47.702979
11
94.302208
21
46.976418
0
LINE
8
Layer 1
10
94.302208
20
46.976418
11
93.281834
21
46.452734
0
LINE
8
Layer 1
10
93.281834
20
46.452734
11
92.157300
21
46.153500
0
LINE
8
Layer 1
10
92.157300
20
46.153500
11
90.610420
21
46.153995
0
LINE
8
Layer 1
10
90.610420
20
46.153995
11
89.543640
21
46.429147
0
LINE
8
Layer 1
10
89.543640
20
46.429147
11
88.595240
21
46.886878
0
LINE
8
Layer 1
10
88.595240
20
46.886878
11
87.531304
21
47.753147
0
LINE
8
Layer 1
10
87.531304
20
47.753147
11
86.735298
21
48.833797
0
LINE
8
Layer 1
10
86.735298
20
48.833797
11
86.236340
21
50.076585
0
LINE
8
Layer 1
10
86.236340
20
50.076585
11
86.063550
21
51.429268
0
LINE
8
Layer 1
10
86.063550
20
51.429268
11
86.161353
21
52.447257
0
LINE
8
Layer 1
10
86.161353
20
52.447257
11
86.443098
21
53.401224
0
LINE
8
Layer 1
10
86.443098
20
53.401224
11
86.891291
21
54.272441
0
LINE
8
Layer 1
10
86.891291
20
54.272441
11
87.488438
21
55.042181
0
LINE
8
Layer 1
10
87.488438
20
55.042181
11
88.217043
21
55.691712
0
LINE
8
Layer 1
10
88.217043
20
55.691712
11
89.059613
21
56.202308
0
LINE
8
Layer 1
10
89.059613
20
56.202308
11
89.998654
21
56.555240
0
LINE
8
Layer 1
10
89.998654
20
56.555240
11
91.016670
21
56.731778
0
LINE
8
Layer 1
10
91.016670
20
56.731778
11
92.219800
21
56.674078
0
LINE
8
Layer 1
10
92.219800
20
56.674078
11
92.219800
21
56.674070
0
LINE
8
Layer 1
10
130.549000
20
62.499300
11
136.531090
21
62.499300
0
LINE
8
Layer 1
10
136.531090
20
62.499300
11
136.531090
21
46.484000
0
LINE
8
Layer 1
10
136.531090
20
46.484000
11
141.000000
21
46.484400
0
LINE
8
Layer 1
10
141.000000
20
46.484400
11
141.000000
21
41.531200
0
LINE
8
Layer 1
10
141.000000
20
41.531200
11
126.000000
21
41.531200
0
LINE
8
Layer 1
10
126.000000
20
41.531200
11
126.000000
21
46.484000
0
LINE
8
Layer 1
10
126.000000
20
46.484000
11
130.484370
21
46.484000
0
LINE
8
Layer 1
10
130.484370
20
46.484000
11
130.549000
21
62.499300
0
LINE
8
Layer 1
10
113.385000
20
61.893000
11
111.305836
21
61.656617
0
LINE
8
Layer 1
10
111.305836
20
61.656617
11
109.736430
21
61.250239
0
LINE
8
Layer 1
10
109.736430
20
61.250239
11
108.496417
21
60.606447
0
LINE
8
Layer 1
10
108.496417
20
60.606447
11
107.405430
21
59.657820
0
LINE
8
Layer 1
10
107.405430
20
59.657820
11
106.681702
21
58.808384
0
LINE
8
Layer 1
10
106.681702
20
58.808384
11
106.139681
21
57.930911
0
LINE
8
Layer 1
10
106.139681
20
57.930911
11
105.732182
21
56.932166
0
LINE
8
Layer 1
10
105.732182
20
56.932166
11
105.412020
21
55.718910
0
LINE
8
Layer 1
10
105.412020
20
55.718910
11
105.171146
21
53.774803
0
LINE
8
Layer 1
10
105.171146
20
53.774803
11
105.137880
21
47.609440
0
LINE
8
Layer 1
10
105.137880
20
47.609440
11
105.137880
21
41.227930
0
LINE
8
Layer 1
10
105.137880
20
41.227930
11
108.067870
21
41.227930
0
LINE
8
Layer 1
10
108.067870
20
41.227930
11
110.997860
21
41.227930
0
LINE
8
Layer 1
10
110.997860
20
41.227930
11
111.012160
21
47.897650
0
LINE
8
Layer 1
10
111.012160
20
47.897650
11
111.026460
21
54.567370
0
LINE
8
Layer 1
10
111.026460
20
54.567370
11
111.140920
21
54.939166
0
LINE
8
Layer 1
10
111.140920
20
54.939166
11
111.473968
21
55.719022
0
LINE
8
Layer 1
10
111.473968
20
55.719022
11
111.943800
21
56.341073
0
LINE
8
Layer 1
10
111.943800
20
56.341073
11
112.549412
21
56.804309
0
LINE
8
Layer 1
10
112.549412
20
56.804309
11
113.289800
21
57.107716
0
LINE
8
Layer 1
10
113.289800
20
57.107716
11
114.279109
21
57.200368
0
LINE
8
Layer 1
10
114.279109
20
57.200368
11
115.272820
21
57.109816
0
LINE
8
Layer 1
10
115.272820
20
57.109816
11
116.021968
21
56.812305
0
LINE
8
Layer 1
10
116.021968
20
56.812305
11
116.625834
21
56.362004
0
LINE
8
Layer 1
10
116.625834
20
56.362004
11
117.089935
21
55.753444
0
LINE
8
Layer 1
10
117.089935
20
55.753444
11
117.419790
21
54.981156
0
LINE
8
Layer 1
10
117.419790
20
54.981156
11
117.532320
21
54.617060
0
LINE
8
Layer 1
10
117.532320
20
54.617060
11
117.546320
21
47.922500
0
LINE
8
Layer 1
10
117.546320
20
47.922500
11
117.560320
21
41.227940
0
LINE
8
Layer 1
10
117.560320
20
41.227940
11
120.490490
21
41.227940
0
LINE
8
Layer 1
10
120.490490
20
41.227940
11
123.420640
21
41.227940
0
LINE
8
Layer 1
10
123.420640
20
41.227940
11
123.420640
21
47.688500
0
LINE
8
Layer 1
10
123.420640
20
47.688500
11
123.367940
21
54.631470
0
LINE
8
Layer 1
10
123.367940
20
54.631470
11
123.014133
21
56.403453
0
LINE
8
Layer 1
10
123.014133
20
56.403453
11
122.366745
21
57.984444
0
LINE
8
Layer 1
10
122.366745
20
57.984444
11
121.436487
21
59.354413
0
LINE
8
Layer 1
10
121.436487
20
59.354413
11
120.234070
21
60.493330
0
LINE
8
Layer 1
10
120.234070
20
60.493330
11
118.651924
21
61.334803
0
LINE
8
Layer 1
10
118.651924
20
61.334803
11
116.614310
21
61.818640
0
LINE
8
Layer 1
10
116.614310
20
61.818640
11
113.385030
21
61.893030
0
LINE
8
Layer 1
10
113.385030
20
61.893030
11
113.385000
21
61.893000
 0 
ENDSEC
 0 
EOF