  0
SECTION
  2
BLOCKS
  0
ENDSEC
  0
SECTION
  2
ENTITIES
  0
LINE
  8
0
 10
0.340179
 20
23.5089
 11
0.679428
 21
23.5356
  0
LINE
  8
0
 10
0.679428
 20
23.5356
 11
1.01682
 21
23.58
  0
LINE
  8
0
 10
1.01682
 20
23.58
 11
1.35143
 21
23.642
  0
LINE
  8
0
 10
1.35143
 20
23.642
 11
1.68231
 21
23.7215
  0
LINE
  8
0
 10
1.68231
 20
23.7215
 11
2.00861
 21
23.8181
  0
LINE
  8
0
 10
2.00861
 20
23.8181
 11
2.32939
 21
23.9317
  0
LINE
  8
0
 10
2.32939
 20
23.9317
 11
2.64378
 21
24.062
  0
LINE
  8
0
 10
2.64378
 20
24.062
 11
2.95093
 21
24.2085
  0
LINE
  8
0
 10
2.95093
 20
24.2085
 11
3.25
 21
24.3708
  0
LINE
  8
0
 10
3.25
 20
24.3708
 11
3.54015
 21
24.5486
  0
LINE
  8
0
 10
3.54015
 20
24.5486
 11
3.8206
 21
24.7414
  0
LINE
  8
0
 10
3.8206
 20
24.7414
 11
4.09058
 21
24.9485
  0
LINE
  8
0
 10
4.09058
 20
24.9485
 11
4.34933
 21
25.1696
  0
LINE
  8
0
 10
4.34933
 20
25.1696
 11
4.59619
 21
25.4038
  0
LINE
  8
0
 10
4.59619
 20
25.4038
 11
4.83043
 21
25.6507
  0
LINE
  8
0
 10
4.83043
 20
25.6507
 11
5.05144
 21
25.9094
  0
LINE
  8
0
 10
5.05144
 20
25.9094
 11
5.25861
 21
26.1794
  0
LINE
  8
0
 10
5.25861
 20
26.1794
 11
5.45135
 21
26.4598
  0
LINE
  8
0
 10
5.45135
 20
26.4598
 11
5.62915
 21
26.75
  0
LINE
  8
0
 10
5.62915
 20
26.75
 11
5.79153
 21
27.0491
  0
LINE
  8
0
 10
5.79153
 20
27.0491
 11
5.93803
 21
27.3562
  0
LINE
  8
0
 10
5.93803
 20
27.3562
 11
6.06827
 21
27.6706
  0
LINE
  8
0
 10
6.06827
 20
27.6706
 11
6.18185
 21
27.9914
  0
LINE
  8
0
 10
6.18185
 20
27.9914
 11
6.2785
 21
28.3177
  0
LINE
  8
0
 10
6.2785
 20
28.3177
 11
6.35796
 21
28.6486
  0
LINE
  8
0
 10
6.35796
 20
28.6486
 11
6.41997
 21
28.9832
  0
LINE
  8
0
 10
6.41997
 20
28.9832
 11
6.46439
 21
29.3206
  0
LINE
  8
0
 10
6.46439
 20
29.3206
 11
6.49109
 21
29.6598
  0
LINE
  8
0
 10
6.49109
 20
29.6598
 11
6.5
 21
30
  0
LINE
  8
0
 10
6.5
 20
30
 11
6.49109
 21
30.3402
  0
LINE
  8
0
 10
6.49109
 20
30.3402
 11
6.46439
 21
30.6794
  0
LINE
  8
0
 10
6.46439
 20
30.6794
 11
6.41997
 21
31.0168
  0
LINE
  8
0
 10
6.41997
 20
31.0168
 11
6.35796
 21
31.3514
  0
LINE
  8
0
 10
6.35796
 20
31.3514
 11
6.2785
 21
31.6823
  0
LINE
  8
0
 10
6.2785
 20
31.6823
 11
6.18185
 21
32.0086
  0
LINE
  8
0
 10
6.18185
 20
32.0086
 11
6.06827
 21
32.3294
  0
LINE
  8
0
 10
6.06827
 20
32.3294
 11
5.93803
 21
32.6438
  0
LINE
  8
0
 10
5.93803
 20
32.6438
 11
5.79153
 21
32.9509
  0
LINE
  8
0
 10
5.79153
 20
32.9509
 11
5.62915
 21
33.25
  0
LINE
  8
0
 10
5.62915
 20
33.25
 11
5.45135
 21
33.5401
  0
LINE
  8
0
 10
5.45135
 20
33.5401
 11
5.25861
 21
33.8206
  0
LINE
  8
0
 10
5.25861
 20
33.8206
 11
5.05144
 21
34.0906
  0
LINE
  8
0
 10
5.05144
 20
34.0906
 11
4.83043
 21
34.3493
  0
LINE
  8
0
 10
4.83043
 20
34.3493
 11
4.59619
 21
34.5962
  0
LINE
  8
0
 10
4.59619
 20
34.5962
 11
4.34933
 21
34.8304
  0
LINE
  8
0
 10
4.34933
 20
34.8304
 11
4.09058
 21
35.0514
  0
LINE
  8
0
 10
4.09058
 20
35.0514
 11
3.8206
 21
35.2586
  0
LINE
  8
0
 10
3.8206
 20
35.2586
 11
3.54015
 21
35.4514
  0
LINE
  8
0
 10
3.54015
 20
35.4514
 11
3.25
 21
35.6292
  0
LINE
  8
0
 10
3.25
 20
35.6292
 11
2.95093
 21
35.7915
  0
LINE
  8
0
 10
2.95093
 20
35.7915
 11
2.64378
 21
35.938
  0
LINE
  8
0
 10
2.64378
 20
35.938
 11
2.32939
 21
36.0683
  0
LINE
  8
0
 10
2.32939
 20
36.0683
 11
2.00861
 21
36.1819
  0
LINE
  8
0
 10
2.00861
 20
36.1819
 11
1.68231
 21
36.2785
  0
LINE
  8
0
 10
1.68231
 20
36.2785
 11
1.35143
 21
36.358
  0
LINE
  8
0
 10
1.35143
 20
36.358
 11
1.01682
 21
36.42
  0
LINE
  8
0
 10
1.01682
 20
36.42
 11
0.679428
 21
36.4644
  0
LINE
  8
0
 10
0.679428
 20
36.4644
 11
0.340179
 21
36.4911
  0
LINE
  8
0
 10
0.340179
 20
36.4911
 11
0
 21
36.5
  0
LINE
  8
0
 10
0
 20
36.5
 11
-0.340179
 21
36.4911
  0
LINE
  8
0
 10
-0.340179
 20
36.4911
 11
-0.679428
 21
36.4644
  0
LINE
  8
0
 10
-0.679428
 20
36.4644
 11
-1.01682
 21
36.42
  0
LINE
  8
0
 10
-1.01682
 20
36.42
 11
-1.35143
 21
36.358
  0
LINE
  8
0
 10
-1.35143
 20
36.358
 11
-1.68231
 21
36.2785
  0
LINE
  8
0
 10
-1.68231
 20
36.2785
 11
-2.00861
 21
36.1819
  0
LINE
  8
0
 10
-2.00861
 20
36.1819
 11
-2.32939
 21
36.0683
  0
LINE
  8
0
 10
-2.32939
 20
36.0683
 11
-2.64378
 21
35.938
  0
LINE
  8
0
 10
-2.64378
 20
35.938
 11
-2.95093
 21
35.7915
  0
LINE
  8
0
 10
-2.95093
 20
35.7915
 11
-3.25
 21
35.6292
  0
LINE
  8
0
 10
-3.25
 20
35.6292
 11
-3.54015
 21
35.4514
  0
LINE
  8
0
 10
-3.54015
 20
35.4514
 11
-3.8206
 21
35.2586
  0
LINE
  8
0
 10
-3.8206
 20
35.2586
 11
-4.09058
 21
35.0514
  0
LINE
  8
0
 10
-4.09058
 20
35.0514
 11
-4.34933
 21
34.8304
  0
LINE
  8
0
 10
-4.34933
 20
34.8304
 11
-4.59619
 21
34.5962
  0
LINE
  8
0
 10
-4.59619
 20
34.5962
 11
-4.83043
 21
34.3493
  0
LINE
  8
0
 10
-4.83043
 20
34.3493
 11
-5.05144
 21
34.0906
  0
LINE
  8
0
 10
-5.05144
 20
34.0906
 11
-5.25861
 21
33.8206
  0
LINE
  8
0
 10
-5.25861
 20
33.8206
 11
-5.45135
 21
33.5401
  0
LINE
  8
0
 10
-5.45135
 20
33.5401
 11
-5.62915
 21
33.25
  0
LINE
  8
0
 10
-5.62915
 20
33.25
 11
-5.79153
 21
32.9509
  0
LINE
  8
0
 10
-5.79153
 20
32.9509
 11
-5.93803
 21
32.6438
  0
LINE
  8
0
 10
-5.93803
 20
32.6438
 11
-6.06827
 21
32.3294
  0
LINE
  8
0
 10
-6.06827
 20
32.3294
 11
-6.18185
 21
32.0086
  0
LINE
  8
0
 10
-6.18185
 20
32.0086
 11
-6.2785
 21
31.6823
  0
LINE
  8
0
 10
-6.2785
 20
31.6823
 11
-6.35796
 21
31.3514
  0
LINE
  8
0
 10
-6.35796
 20
31.3514
 11
-6.41997
 21
31.0168
  0
LINE
  8
0
 10
-6.41997
 20
31.0168
 11
-6.46439
 21
30.6794
  0
LINE
  8
0
 10
-6.46439
 20
30.6794
 11
-6.49109
 21
30.3402
  0
LINE
  8
0
 10
-6.49109
 20
30.3402
 11
-6.5
 21
30
  0
LINE
  8
0
 10
-6.5
 20
30
 11
-6.49109
 21
29.6598
  0
LINE
  8
0
 10
-6.49109
 20
29.6598
 11
-6.46439
 21
29.3206
  0
LINE
  8
0
 10
-6.46439
 20
29.3206
 11
-6.41997
 21
28.9832
  0
LINE
  8
0
 10
-6.41997
 20
28.9832
 11
-6.35796
 21
28.6486
  0
LINE
  8
0
 10
-6.35796
 20
28.6486
 11
-6.2785
 21
28.3177
  0
LINE
  8
0
 10
-6.2785
 20
28.3177
 11
-6.18185
 21
27.9914
  0
LINE
  8
0
 10
-6.18185
 20
27.9914
 11
-6.06827
 21
27.6706
  0
LINE
  8
0
 10
-6.06827
 20
27.6706
 11
-5.93803
 21
27.3562
  0
LINE
  8
0
 10
-5.93803
 20
27.3562
 11
-5.79153
 21
27.0491
  0
LINE
  8
0
 10
-5.79153
 20
27.0491
 11
-5.62915
 21
26.75
  0
LINE
  8
0
 10
-5.62915
 20
26.75
 11
-5.45135
 21
26.4598
  0
LINE
  8
0
 10
-5.45135
 20
26.4598
 11
-5.25861
 21
26.1794
  0
LINE
  8
0
 10
-5.25861
 20
26.1794
 11
-5.05144
 21
25.9094
  0
LINE
  8
0
 10
-5.05144
 20
25.9094
 11
-4.83043
 21
25.6507
  0
LINE
  8
0
 10
-4.83043
 20
25.6507
 11
-4.59619
 21
25.4038
  0
LINE
  8
0
 10
-4.59619
 20
25.4038
 11
-4.34933
 21
25.1696
  0
LINE
  8
0
 10
-4.34933
 20
25.1696
 11
-4.09058
 21
24.9485
  0
LINE
  8
0
 10
-4.09058
 20
24.9485
 11
-3.8206
 21
24.7414
  0
LINE
  8
0
 10
-3.8206
 20
24.7414
 11
-3.54015
 21
24.5486
  0
LINE
  8
0
 10
-3.54015
 20
24.5486
 11
-3.25
 21
24.3708
  0
LINE
  8
0
 10
-3.25
 20
24.3708
 11
-2.95093
 21
24.2085
  0
LINE
  8
0
 10
-2.95093
 20
24.2085
 11
-2.64378
 21
24.062
  0
LINE
  8
0
 10
-2.64378
 20
24.062
 11
-2.32939
 21
23.9317
  0
LINE
  8
0
 10
-2.32939
 20
23.9317
 11
-2.00861
 21
23.8181
  0
LINE
  8
0
 10
-2.00861
 20
23.8181
 11
-1.68231
 21
23.7215
  0
LINE
  8
0
 10
-1.68231
 20
23.7215
 11
-1.35143
 21
23.642
  0
LINE
  8
0
 10
-1.35143
 20
23.642
 11
-1.01682
 21
23.58
  0
LINE
  8
0
 10
-1.01682
 20
23.58
 11
-0.679428
 21
23.5356
  0
LINE
  8
0
 10
-0.679428
 20
23.5356
 11
-0.340179
 21
23.5089
  0
LINE
  8
0
 10
-0.340179
 20
23.5089
 11
0
 21
23.5
  0
LINE
  8
0
 10
0
 20
23.5
 11
0.340179
 21
23.5089
  0
LINE
  8
0
 10
-25.6406
 20
-21.4911
 11
-25.3013
 21
-21.4644
  0
LINE
  8
0
 10
-25.3013
 20
-21.4644
 11
-24.9639
 21
-21.42
  0
LINE
  8
0
 10
-24.9639
 20
-21.42
 11
-24.6293
 21
-21.358
  0
LINE
  8
0
 10
-24.6293
 20
-21.358
 11
-24.2984
 21
-21.2785
  0
LINE
  8
0
 10
-24.2984
 20
-21.2785
 11
-23.9721
 21
-21.1819
  0
LINE
  8
0
 10
-23.9721
 20
-21.1819
 11
-23.6514
 21
-21.0683
  0
LINE
  8
0
 10
-23.6514
 20
-21.0683
 11
-23.337
 21
-20.938
  0
LINE
  8
0
 10
-23.337
 20
-20.938
 11
-23.0298
 21
-20.7915
  0
LINE
  8
0
 10
-23.0298
 20
-20.7915
 11
-22.7308
 21
-20.6292
  0
LINE
  8
0
 10
-22.7308
 20
-20.6292
 11
-22.4406
 21
-20.4514
  0
LINE
  8
0
 10
-22.4406
 20
-20.4514
 11
-22.1602
 21
-20.2586
  0
LINE
  8
0
 10
-22.1602
 20
-20.2586
 11
-21.8902
 21
-20.0514
  0
LINE
  8
0
 10
-21.8902
 20
-20.0514
 11
-21.6314
 21
-19.8304
  0
LINE
  8
0
 10
-21.6314
 20
-19.8304
 11
-21.3846
 21
-19.5962
  0
LINE
  8
0
 10
-21.3846
 20
-19.5962
 11
-21.1503
 21
-19.3493
  0
LINE
  8
0
 10
-21.1503
 20
-19.3493
 11
-20.9293
 21
-19.0906
  0
LINE
  8
0
 10
-20.9293
 20
-19.0906
 11
-20.7221
 21
-18.8206
  0
LINE
  8
0
 10
-20.7221
 20
-18.8206
 11
-20.5294
 21
-18.5401
  0
LINE
  8
0
 10
-20.5294
 20
-18.5401
 11
-20.3516
 21
-18.25
  0
LINE
  8
0
 10
-20.3516
 20
-18.25
 11
-20.1892
 21
-17.9509
  0
LINE
  8
0
 10
-20.1892
 20
-17.9509
 11
-20.0427
 21
-17.6438
  0
LINE
  8
0
 10
-20.0427
 20
-17.6438
 11
-19.9125
 21
-17.3294
  0
LINE
  8
0
 10
-19.9125
 20
-17.3294
 11
-19.7989
 21
-17.0086
  0
LINE
  8
0
 10
-19.7989
 20
-17.0086
 11
-19.7022
 21
-16.6823
  0
LINE
  8
0
 10
-19.7022
 20
-16.6823
 11
-19.6228
 21
-16.3514
  0
LINE
  8
0
 10
-19.6228
 20
-16.3514
 11
-19.5608
 21
-16.0168
  0
LINE
  8
0
 10
-19.5608
 20
-16.0168
 11
-19.5164
 21
-15.6794
  0
LINE
  8
0
 10
-19.5164
 20
-15.6794
 11
-19.4897
 21
-15.3402
  0
LINE
  8
0
 10
-19.4897
 20
-15.3402
 11
-19.4808
 21
-15
  0
LINE
  8
0
 10
-19.4808
 20
-15
 11
-19.4897
 21
-14.6598
  0
LINE
  8
0
 10
-19.4897
 20
-14.6598
 11
-19.5164
 21
-14.3206
  0
LINE
  8
0
 10
-19.5164
 20
-14.3206
 11
-19.5608
 21
-13.9832
  0
LINE
  8
0
 10
-19.5608
 20
-13.9832
 11
-19.6228
 21
-13.6486
  0
LINE
  8
0
 10
-19.6228
 20
-13.6486
 11
-19.7022
 21
-13.3177
  0
LINE
  8
0
 10
-19.7022
 20
-13.3177
 11
-19.7989
 21
-12.9914
  0
LINE
  8
0
 10
-19.7989
 20
-12.9914
 11
-19.9125
 21
-12.6706
  0
LINE
  8
0
 10
-19.9125
 20
-12.6706
 11
-20.0427
 21
-12.3562
  0
LINE
  8
0
 10
-20.0427
 20
-12.3562
 11
-20.1892
 21
-12.0491
  0
LINE
  8
0
 10
-20.1892
 20
-12.0491
 11
-20.3516
 21
-11.75
  0
LINE
  8
0
 10
-20.3516
 20
-11.75
 11
-20.5294
 21
-11.4598
  0
LINE
  8
0
 10
-20.5294
 20
-11.4598
 11
-20.7221
 21
-11.1794
  0
LINE
  8
0
 10
-20.7221
 20
-11.1794
 11
-20.9293
 21
-10.9094
  0
LINE
  8
0
 10
-20.9293
 20
-10.9094
 11
-21.1503
 21
-10.6507
  0
LINE
  8
0
 10
-21.1503
 20
-10.6507
 11
-21.3846
 21
-10.4038
  0
LINE
  8
0
 10
-21.3846
 20
-10.4038
 11
-21.6314
 21
-10.1696
  0
LINE
  8
0
 10
-21.6314
 20
-10.1696
 11
-21.8902
 21
-9.94855
  0
LINE
  8
0
 10
-21.8902
 20
-9.94855
 11
-22.1602
 21
-9.74138
  0
LINE
  8
0
 10
-22.1602
 20
-9.74138
 11
-22.4406
 21
-9.54863
  0
LINE
  8
0
 10
-22.4406
 20
-9.54863
 11
-22.7308
 21
-9.37083
  0
LINE
  8
0
 10
-22.7308
 20
-9.37083
 11
-23.0298
 21
-9.20845
  0
LINE
  8
0
 10
-23.0298
 20
-9.20845
 11
-23.337
 21
-9.06195
  0
LINE
  8
0
 10
-23.337
 20
-9.06195
 11
-23.6514
 21
-8.93172
  0
LINE
  8
0
 10
-23.6514
 20
-8.93172
 11
-23.9721
 21
-8.81813
  0
LINE
  8
0
 10
-23.9721
 20
-8.81813
 11
-24.2984
 21
-8.72148
  0
LINE
  8
0
 10
-24.2984
 20
-8.72148
 11
-24.6293
 21
-8.64203
  0
LINE
  8
0
 10
-24.6293
 20
-8.64203
 11
-24.9639
 21
-8.58002
  0
LINE
  8
0
 10
-24.9639
 20
-8.58002
 11
-25.3013
 21
-8.5356
  0
LINE
  8
0
 10
-25.3013
 20
-8.5356
 11
-25.6406
 21
-8.5089
  0
LINE
  8
0
 10
-25.6406
 20
-8.5089
 11
-25.9808
 21
-8.5
  0
LINE
  8
0
 10
-25.9808
 20
-8.5
 11
-26.3209
 21
-8.5089
  0
LINE
  8
0
 10
-26.3209
 20
-8.5089
 11
-26.6602
 21
-8.5356
  0
LINE
  8
0
 10
-26.6602
 20
-8.5356
 11
-26.9976
 21
-8.58002
  0
LINE
  8
0
 10
-26.9976
 20
-8.58002
 11
-27.3322
 21
-8.64203
  0
LINE
  8
0
 10
-27.3322
 20
-8.64203
 11
-27.6631
 21
-8.72148
  0
LINE
  8
0
 10
-27.6631
 20
-8.72148
 11
-27.9894
 21
-8.81813
  0
LINE
  8
0
 10
-27.9894
 20
-8.81813
 11
-28.3102
 21
-8.93172
  0
LINE
  8
0
 10
-28.3102
 20
-8.93172
 11
-28.6245
 21
-9.06195
  0
LINE
  8
0
 10
-28.6245
 20
-9.06195
 11
-28.9317
 21
-9.20845
  0
LINE
  8
0
 10
-28.9317
 20
-9.20845
 11
-29.2308
 21
-9.37083
  0
LINE
  8
0
 10
-29.2308
 20
-9.37083
 11
-29.5209
 21
-9.54863
  0
LINE
  8
0
 10
-29.5209
 20
-9.54863
 11
-29.8014
 21
-9.74138
  0
LINE
  8
0
 10
-29.8014
 20
-9.74138
 11
-30.0713
 21
-9.94855
  0
LINE
  8
0
 10
-30.0713
 20
-9.94855
 11
-30.3301
 21
-10.1696
  0
LINE
  8
0
 10
-30.3301
 20
-10.1696
 11
-30.577
 21
-10.4038
  0
LINE
  8
0
 10
-30.577
 20
-10.4038
 11
-30.8112
 21
-10.6507
  0
LINE
  8
0
 10
-30.8112
 20
-10.6507
 11
-31.0322
 21
-10.9094
  0
LINE
  8
0
 10
-31.0322
 20
-10.9094
 11
-31.2394
 21
-11.1794
  0
LINE
  8
0
 10
-31.2394
 20
-11.1794
 11
-31.4321
 21
-11.4598
  0
LINE
  8
0
 10
-31.4321
 20
-11.4598
 11
-31.6099
 21
-11.75
  0
LINE
  8
0
 10
-31.6099
 20
-11.75
 11
-31.7723
 21
-12.0491
  0
LINE
  8
0
 10
-31.7723
 20
-12.0491
 11
-31.9188
 21
-12.3562
  0
LINE
  8
0
 10
-31.9188
 20
-12.3562
 11
-32.049
 21
-12.6706
  0
LINE
  8
0
 10
-32.049
 20
-12.6706
 11
-32.1626
 21
-12.9914
  0
LINE
  8
0
 10
-32.1626
 20
-12.9914
 11
-32.2593
 21
-13.3177
  0
LINE
  8
0
 10
-32.2593
 20
-13.3177
 11
-32.3387
 21
-13.6486
  0
LINE
  8
0
 10
-32.3387
 20
-13.6486
 11
-32.4007
 21
-13.9832
  0
LINE
  8
0
 10
-32.4007
 20
-13.9832
 11
-32.4451
 21
-14.3206
  0
LINE
  8
0
 10
-32.4451
 20
-14.3206
 11
-32.4718
 21
-14.6598
  0
LINE
  8
0
 10
-32.4718
 20
-14.6598
 11
-32.4808
 21
-15
  0
LINE
  8
0
 10
-32.4808
 20
-15
 11
-32.4718
 21
-15.3402
  0
LINE
  8
0
 10
-32.4718
 20
-15.3402
 11
-32.4451
 21
-15.6794
  0
LINE
  8
0
 10
-32.4451
 20
-15.6794
 11
-32.4007
 21
-16.0168
  0
LINE
  8
0
 10
-32.4007
 20
-16.0168
 11
-32.3387
 21
-16.3514
  0
LINE
  8
0
 10
-32.3387
 20
-16.3514
 11
-32.2593
 21
-16.6823
  0
LINE
  8
0
 10
-32.2593
 20
-16.6823
 11
-32.1626
 21
-17.0086
  0
LINE
  8
0
 10
-32.1626
 20
-17.0086
 11
-32.049
 21
-17.3294
  0
LINE
  8
0
 10
-32.049
 20
-17.3294
 11
-31.9188
 21
-17.6438
  0
LINE
  8
0
 10
-31.9188
 20
-17.6438
 11
-31.7723
 21
-17.9509
  0
LINE
  8
0
 10
-31.7723
 20
-17.9509
 11
-31.6099
 21
-18.25
  0
LINE
  8
0
 10
-31.6099
 20
-18.25
 11
-31.4321
 21
-18.5401
  0
LINE
  8
0
 10
-31.4321
 20
-18.5401
 11
-31.2394
 21
-18.8206
  0
LINE
  8
0
 10
-31.2394
 20
-18.8206
 11
-31.0322
 21
-19.0906
  0
LINE
  8
0
 10
-31.0322
 20
-19.0906
 11
-30.8112
 21
-19.3493
  0
LINE
  8
0
 10
-30.8112
 20
-19.3493
 11
-30.577
 21
-19.5962
  0
LINE
  8
0
 10
-30.577
 20
-19.5962
 11
-30.3301
 21
-19.8304
  0
LINE
  8
0
 10
-30.3301
 20
-19.8304
 11
-30.0713
 21
-20.0514
  0
LINE
  8
0
 10
-30.0713
 20
-20.0514
 11
-29.8014
 21
-20.2586
  0
LINE
  8
0
 10
-29.8014
 20
-20.2586
 11
-29.5209
 21
-20.4514
  0
LINE
  8
0
 10
-29.5209
 20
-20.4514
 11
-29.2308
 21
-20.6292
  0
LINE
  8
0
 10
-29.2308
 20
-20.6292
 11
-28.9317
 21
-20.7915
  0
LINE
  8
0
 10
-28.9317
 20
-20.7915
 11
-28.6245
 21
-20.938
  0
LINE
  8
0
 10
-28.6245
 20
-20.938
 11
-28.3102
 21
-21.0683
  0
LINE
  8
0
 10
-28.3102
 20
-21.0683
 11
-27.9894
 21
-21.1819
  0
LINE
  8
0
 10
-27.9894
 20
-21.1819
 11
-27.6631
 21
-21.2785
  0
LINE
  8
0
 10
-27.6631
 20
-21.2785
 11
-27.3322
 21
-21.358
  0
LINE
  8
0
 10
-27.3322
 20
-21.358
 11
-26.9976
 21
-21.42
  0
LINE
  8
0
 10
-26.9976
 20
-21.42
 11
-26.6602
 21
-21.4644
  0
LINE
  8
0
 10
-26.6602
 20
-21.4644
 11
-26.3209
 21
-21.4911
  0
LINE
  8
0
 10
-26.3209
 20
-21.4911
 11
-25.9808
 21
-21.5
  0
LINE
  8
0
 10
-25.9808
 20
-21.5
 11
-25.6406
 21
-21.4911
  0
LINE
  8
0
 10
26.3209
 20
-21.4911
 11
26.6602
 21
-21.4644
  0
LINE
  8
0
 10
26.6602
 20
-21.4644
 11
26.9976
 21
-21.42
  0
LINE
  8
0
 10
26.9976
 20
-21.42
 11
27.3322
 21
-21.358
  0
LINE
  8
0
 10
27.3322
 20
-21.358
 11
27.6631
 21
-21.2785
  0
LINE
  8
0
 10
27.6631
 20
-21.2785
 11
27.9894
 21
-21.1819
  0
LINE
  8
0
 10
27.9894
 20
-21.1819
 11
28.3102
 21
-21.0683
  0
LINE
  8
0
 10
28.3102
 20
-21.0683
 11
28.6245
 21
-20.938
  0
LINE
  8
0
 10
28.6245
 20
-20.938
 11
28.9317
 21
-20.7915
  0
LINE
  8
0
 10
28.9317
 20
-20.7915
 11
29.2308
 21
-20.6292
  0
LINE
  8
0
 10
29.2308
 20
-20.6292
 11
29.5209
 21
-20.4514
  0
LINE
  8
0
 10
29.5209
 20
-20.4514
 11
29.8014
 21
-20.2586
  0
LINE
  8
0
 10
29.8014
 20
-20.2586
 11
30.0713
 21
-20.0514
  0
LINE
  8
0
 10
30.0713
 20
-20.0514
 11
30.3301
 21
-19.8304
  0
LINE
  8
0
 10
30.3301
 20
-19.8304
 11
30.577
 21
-19.5962
  0
LINE
  8
0
 10
30.577
 20
-19.5962
 11
30.8112
 21
-19.3493
  0
LINE
  8
0
 10
30.8112
 20
-19.3493
 11
31.0322
 21
-19.0906
  0
LINE
  8
0
 10
31.0322
 20
-19.0906
 11
31.2394
 21
-18.8206
  0
LINE
  8
0
 10
31.2394
 20
-18.8206
 11
31.4321
 21
-18.5401
  0
LINE
  8
0
 10
31.4321
 20
-18.5401
 11
31.6099
 21
-18.25
  0
LINE
  8
0
 10
31.6099
 20
-18.25
 11
31.7723
 21
-17.9509
  0
LINE
  8
0
 10
31.7723
 20
-17.9509
 11
31.9188
 21
-17.6438
  0
LINE
  8
0
 10
31.9188
 20
-17.6438
 11
32.049
 21
-17.3294
  0
LINE
  8
0
 10
32.049
 20
-17.3294
 11
32.1626
 21
-17.0086
  0
LINE
  8
0
 10
32.1626
 20
-17.0086
 11
32.2593
 21
-16.6823
  0
LINE
  8
0
 10
32.2593
 20
-16.6823
 11
32.3387
 21
-16.3514
  0
LINE
  8
0
 10
32.3387
 20
-16.3514
 11
32.4007
 21
-16.0168
  0
LINE
  8
0
 10
32.4007
 20
-16.0168
 11
32.4451
 21
-15.6794
  0
LINE
  8
0
 10
32.4451
 20
-15.6794
 11
32.4718
 21
-15.3402
  0
LINE
  8
0
 10
32.4718
 20
-15.3402
 11
32.4808
 21
-15
  0
LINE
  8
0
 10
32.4808
 20
-15
 11
32.4718
 21
-14.6598
  0
LINE
  8
0
 10
32.4718
 20
-14.6598
 11
32.4451
 21
-14.3206
  0
LINE
  8
0
 10
32.4451
 20
-14.3206
 11
32.4007
 21
-13.9832
  0
LINE
  8
0
 10
32.4007
 20
-13.9832
 11
32.3387
 21
-13.6486
  0
LINE
  8
0
 10
32.3387
 20
-13.6486
 11
32.2593
 21
-13.3177
  0
LINE
  8
0
 10
32.2593
 20
-13.3177
 11
32.1626
 21
-12.9914
  0
LINE
  8
0
 10
32.1626
 20
-12.9914
 11
32.049
 21
-12.6706
  0
LINE
  8
0
 10
32.049
 20
-12.6706
 11
31.9188
 21
-12.3562
  0
LINE
  8
0
 10
31.9188
 20
-12.3562
 11
31.7723
 21
-12.0491
  0
LINE
  8
0
 10
31.7723
 20
-12.0491
 11
31.6099
 21
-11.75
  0
LINE
  8
0
 10
31.6099
 20
-11.75
 11
31.4321
 21
-11.4598
  0
LINE
  8
0
 10
31.4321
 20
-11.4598
 11
31.2394
 21
-11.1794
  0
LINE
  8
0
 10
31.2394
 20
-11.1794
 11
31.0322
 21
-10.9094
  0
LINE
  8
0
 10
31.0322
 20
-10.9094
 11
30.8112
 21
-10.6507
  0
LINE
  8
0
 10
30.8112
 20
-10.6507
 11
30.577
 21
-10.4038
  0
LINE
  8
0
 10
30.577
 20
-10.4038
 11
30.3301
 21
-10.1696
  0
LINE
  8
0
 10
30.3301
 20
-10.1696
 11
30.0713
 21
-9.94855
  0
LINE
  8
0
 10
30.0713
 20
-9.94855
 11
29.8014
 21
-9.74138
  0
LINE
  8
0
 10
29.8014
 20
-9.74138
 11
29.5209
 21
-9.54863
  0
LINE
  8
0
 10
29.5209
 20
-9.54863
 11
29.2308
 21
-9.37083
  0
LINE
  8
0
 10
29.2308
 20
-9.37083
 11
28.9317
 21
-9.20845
  0
LINE
  8
0
 10
28.9317
 20
-9.20845
 11
28.6245
 21
-9.06195
  0
LINE
  8
0
 10
28.6245
 20
-9.06195
 11
28.3102
 21
-8.93172
  0
LINE
  8
0
 10
28.3102
 20
-8.93172
 11
27.9894
 21
-8.81813
  0
LINE
  8
0
 10
27.9894
 20
-8.81813
 11
27.6631
 21
-8.72148
  0
LINE
  8
0
 10
27.6631
 20
-8.72148
 11
27.3322
 21
-8.64203
  0
LINE
  8
0
 10
27.3322
 20
-8.64203
 11
26.9976
 21
-8.58002
  0
LINE
  8
0
 10
26.9976
 20
-8.58002
 11
26.6602
 21
-8.5356
  0
LINE
  8
0
 10
26.6602
 20
-8.5356
 11
26.3209
 21
-8.5089
  0
LINE
  8
0
 10
26.3209
 20
-8.5089
 11
25.9808
 21
-8.5
  0
LINE
  8
0
 10
25.9808
 20
-8.5
 11
25.6406
 21
-8.5089
  0
LINE
  8
0
 10
25.6406
 20
-8.5089
 11
25.3013
 21
-8.5356
  0
LINE
  8
0
 10
25.3013
 20
-8.5356
 11
24.9639
 21
-8.58002
  0
LINE
  8
0
 10
24.9639
 20
-8.58002
 11
24.6293
 21
-8.64203
  0
LINE
  8
0
 10
24.6293
 20
-8.64203
 11
24.2984
 21
-8.72148
  0
LINE
  8
0
 10
24.2984
 20
-8.72148
 11
23.9721
 21
-8.81813
  0
LINE
  8
0
 10
23.9721
 20
-8.81813
 11
23.6514
 21
-8.93172
  0
LINE
  8
0
 10
23.6514
 20
-8.93172
 11
23.337
 21
-9.06195
  0
LINE
  8
0
 10
23.337
 20
-9.06195
 11
23.0298
 21
-9.20845
  0
LINE
  8
0
 10
23.0298
 20
-9.20845
 11
22.7308
 21
-9.37083
  0
LINE
  8
0
 10
22.7308
 20
-9.37083
 11
22.4406
 21
-9.54863
  0
LINE
  8
0
 10
22.4406
 20
-9.54863
 11
22.1602
 21
-9.74138
  0
LINE
  8
0
 10
22.1602
 20
-9.74138
 11
21.8902
 21
-9.94855
  0
LINE
  8
0
 10
21.8902
 20
-9.94855
 11
21.6314
 21
-10.1696
  0
LINE
  8
0
 10
21.6314
 20
-10.1696
 11
21.3846
 21
-10.4038
  0
LINE
  8
0
 10
21.3846
 20
-10.4038
 11
21.1503
 21
-10.6507
  0
LINE
  8
0
 10
21.1503
 20
-10.6507
 11
20.9293
 21
-10.9094
  0
LINE
  8
0
 10
20.9293
 20
-10.9094
 11
20.7221
 21
-11.1794
  0
LINE
  8
0
 10
20.7221
 20
-11.1794
 11
20.5294
 21
-11.4598
  0
LINE
  8
0
 10
20.5294
 20
-11.4598
 11
20.3516
 21
-11.75
  0
LINE
  8
0
 10
20.3516
 20
-11.75
 11
20.1892
 21
-12.0491
  0
LINE
  8
0
 10
20.1892
 20
-12.0491
 11
20.0427
 21
-12.3562
  0
LINE
  8
0
 10
20.0427
 20
-12.3562
 11
19.9125
 21
-12.6706
  0
LINE
  8
0
 10
19.9125
 20
-12.6706
 11
19.7989
 21
-12.9914
  0
LINE
  8
0
 10
19.7989
 20
-12.9914
 11
19.7022
 21
-13.3177
  0
LINE
  8
0
 10
19.7022
 20
-13.3177
 11
19.6228
 21
-13.6486
  0
LINE
  8
0
 10
19.6228
 20
-13.6486
 11
19.5608
 21
-13.9832
  0
LINE
  8
0
 10
19.5608
 20
-13.9832
 11
19.5164
 21
-14.3206
  0
LINE
  8
0
 10
19.5164
 20
-14.3206
 11
19.4897
 21
-14.6598
  0
LINE
  8
0
 10
19.4897
 20
-14.6598
 11
19.4808
 21
-15
  0
LINE
  8
0
 10
19.4808
 20
-15
 11
19.4897
 21
-15.3402
  0
LINE
  8
0
 10
19.4897
 20
-15.3402
 11
19.5164
 21
-15.6794
  0
LINE
  8
0
 10
19.5164
 20
-15.6794
 11
19.5608
 21
-16.0168
  0
LINE
  8
0
 10
19.5608
 20
-16.0168
 11
19.6228
 21
-16.3514
  0
LINE
  8
0
 10
19.6228
 20
-16.3514
 11
19.7022
 21
-16.6823
  0
LINE
  8
0
 10
19.7022
 20
-16.6823
 11
19.7989
 21
-17.0086
  0
LINE
  8
0
 10
19.7989
 20
-17.0086
 11
19.9125
 21
-17.3294
  0
LINE
  8
0
 10
19.9125
 20
-17.3294
 11
20.0427
 21
-17.6438
  0
LINE
  8
0
 10
20.0427
 20
-17.6438
 11
20.1892
 21
-17.9509
  0
LINE
  8
0
 10
20.1892
 20
-17.9509
 11
20.3516
 21
-18.25
  0
LINE
  8
0
 10
20.3516
 20
-18.25
 11
20.5294
 21
-18.5401
  0
LINE
  8
0
 10
20.5294
 20
-18.5401
 11
20.7221
 21
-18.8206
  0
LINE
  8
0
 10
20.7221
 20
-18.8206
 11
20.9293
 21
-19.0906
  0
LINE
  8
0
 10
20.9293
 20
-19.0906
 11
21.1503
 21
-19.3493
  0
LINE
  8
0
 10
21.1503
 20
-19.3493
 11
21.3846
 21
-19.5962
  0
LINE
  8
0
 10
21.3846
 20
-19.5962
 11
21.6314
 21
-19.8304
  0
LINE
  8
0
 10
21.6314
 20
-19.8304
 11
21.8902
 21
-20.0514
  0
LINE
  8
0
 10
21.8902
 20
-20.0514
 11
22.1602
 21
-20.2586
  0
LINE
  8
0
 10
22.1602
 20
-20.2586
 11
22.4406
 21
-20.4514
  0
LINE
  8
0
 10
22.4406
 20
-20.4514
 11
22.7308
 21
-20.6292
  0
LINE
  8
0
 10
22.7308
 20
-20.6292
 11
23.0298
 21
-20.7915
  0
LINE
  8
0
 10
23.0298
 20
-20.7915
 11
23.337
 21
-20.938
  0
LINE
  8
0
 10
23.337
 20
-20.938
 11
23.6514
 21
-21.0683
  0
LINE
  8
0
 10
23.6514
 20
-21.0683
 11
23.9721
 21
-21.1819
  0
LINE
  8
0
 10
23.9721
 20
-21.1819
 11
24.2984
 21
-21.2785
  0
LINE
  8
0
 10
24.2984
 20
-21.2785
 11
24.6293
 21
-21.358
  0
LINE
  8
0
 10
24.6293
 20
-21.358
 11
24.9639
 21
-21.42
  0
LINE
  8
0
 10
24.9639
 20
-21.42
 11
25.3013
 21
-21.4644
  0
LINE
  8
0
 10
25.3013
 20
-21.4644
 11
25.6406
 21
-21.4911
  0
LINE
  8
0
 10
25.6406
 20
-21.4911
 11
25.9808
 21
-21.5
  0
LINE
  8
0
 10
25.9808
 20
-21.5
 11
26.3209
 21
-21.4911
  0
ENDSEC
  0
SECTION
  2
OBJECTS
  0
DICTIONARY
  0
ENDSEC
  0
EOF
